<svg xmlns="http://www.w3.org/2000/svg" version="1.1" xmlns:xlink="http://www.w3.org/1999/xlink" xmlns:svgjs="http://svgjs.dev/svgjs" width="1440" height="560" preserveAspectRatio="none" viewBox="0 0 1440 560"><g mask="url(&quot;#SvgjsMask1007&quot;)" fill="none"><path d="M 0,18 C 57.6,66.4 172.8,241.8 288,260 C 403.2,278.2 460.8,117.4 576,109 C 691.2,100.6 748.8,227.4 864,218 C 979.2,208.6 1036.8,56.6 1152,62 C 1267.2,67.4 1382.4,208.4 1440,245L1440 560L0 560z" fill="rgba(159, 0, 0, 1)"></path><path d="M 0,547 C 96,519.2 288,430.4 480,408 C 672,385.6 768,439.6 960,435 C 1152,430.4 1344,395 1440,385L1440 560L0 560z" fill="rgba(255, 205, 37, 0.978)"></path></g><defs><mask id="SvgjsMask1007"><rect width="1440" height="560" fill="#ffffff"></rect></mask></defs></svg>